<svg width="778" height="1080" viewBox="0 0 778 1080" fill="none" xmlns="http://www.w3.org/2000/svg">
<mask id="mask0_115_3706" style="mask-type:alpha" maskUnits="userSpaceOnUse" x="0" y="0" width="778" height="1080">
<rect width="777.51" height="1080" rx="10.5908" fill="url(#paint0_linear_115_3706)"/>
</mask>
<g mask="url(#mask0_115_3706)">
<g filter="url(#filter0_d_115_3706)">
<path d="M583.693 44.8134C583.693 171.037 481.369 273.361 355.145 273.361C228.922 273.361 126.598 171.037 126.598 44.8134C126.598 -81.4101 228.922 -183.734 355.145 -183.734C481.369 -183.734 583.693 -81.4101 583.693 44.8134ZM168.59 44.8134C168.59 147.845 252.114 231.368 355.145 231.368C458.177 231.368 541.7 147.845 541.7 44.8134C541.7 -58.218 458.177 -141.741 355.145 -141.741C252.114 -141.741 168.59 -58.218 168.59 44.8134Z" fill="#1D366D"/>
</g>
<path d="M143.897 881.527C52.6849 968.777 -91.9879 965.566 -179.239 874.354C-266.489 783.141 -263.278 638.469 -172.065 551.218C-80.8532 463.967 63.8196 467.179 151.07 558.391C238.321 649.603 235.109 794.276 143.897 881.527ZM-132.57 592.506C-200.979 657.944 -203.388 766.449 -137.95 834.858C-72.5119 903.267 35.9927 905.676 104.402 840.238C172.811 774.8 175.22 666.295 109.782 597.886C44.3437 529.477 -64.1609 527.068 -132.57 592.506Z" fill="#1D366D"/>
<path d="M710.29 21.2864C710.29 88.7293 655.617 143.403 588.174 143.403C520.731 143.403 466.058 88.7293 466.058 21.2864C466.058 -46.1566 520.731 -100.83 588.174 -100.83C655.617 -100.83 710.29 -46.1566 710.29 21.2864ZM514.905 21.2864C514.905 61.7521 547.709 94.5561 588.174 94.5561C628.64 94.5561 661.444 61.7521 661.444 21.2864C661.444 -19.1794 628.64 -51.9834 588.174 -51.9834C547.709 -51.9834 514.905 -19.1794 514.905 21.2864Z" fill="#1C2E5A"/>
<path d="M175.243 993.806C109.098 1057.08 4.18491 1054.75 -59.0872 988.604C-122.359 922.459 -120.03 817.546 -53.8854 754.274C12.2595 691.002 117.173 693.331 180.445 759.476C243.717 825.62 241.388 930.534 175.243 993.806ZM-32.8356 776.279C-86.8272 827.926 -88.7282 913.563 -37.0816 967.554C14.565 1021.55 100.202 1023.45 154.193 971.8C208.185 920.154 210.086 834.517 158.439 780.525C106.793 726.534 21.156 724.633 -32.8356 776.279Z" fill="#6B739C"/>
<path d="M886.654 946.752C820.509 1010.02 715.596 1007.7 652.324 941.55C589.052 875.405 591.381 770.492 657.525 707.22C723.67 643.948 828.584 646.277 891.856 712.422C955.128 778.567 952.799 883.48 886.654 946.752ZM691.895 743.15C645.593 787.44 643.963 860.879 688.254 907.181C732.544 953.482 805.983 955.113 852.285 910.822C898.586 866.532 900.216 793.092 855.926 746.791C811.635 700.489 738.196 698.859 691.895 743.15Z" fill="#475384"/>
<circle cx="262.942" cy="975.474" r="22.742" transform="rotate(46.2717 262.942 975.474)" fill="#1D366D"/>
<circle cx="134.072" cy="203.532" r="12.4178" transform="rotate(46.2717 134.072 203.532)" fill="#475384"/>
</g>
<defs>
<filter id="filter0_d_115_3706" x="122.598" y="-183.734" width="465.095" height="465.095" filterUnits="userSpaceOnUse" color-interpolation-filters="sRGB">
<feFlood flood-opacity="0" result="BackgroundImageFix"/>
<feColorMatrix in="SourceAlpha" type="matrix" values="0 0 0 0 0 0 0 0 0 0 0 0 0 0 0 0 0 0 127 0" result="hardAlpha"/>
<feOffset dy="4"/>
<feGaussianBlur stdDeviation="2"/>
<feComposite in2="hardAlpha" operator="out"/>
<feColorMatrix type="matrix" values="0 0 0 0 0 0 0 0 0 0 0 0 0 0 0 0 0 0 0.25 0"/>
<feBlend mode="normal" in2="BackgroundImageFix" result="effect1_dropShadow_115_3706"/>
<feBlend mode="normal" in="SourceGraphic" in2="effect1_dropShadow_115_3706" result="shape"/>
</filter>
<linearGradient id="paint0_linear_115_3706" x1="0" y1="0" x2="929.95" y2="927.089" gradientUnits="userSpaceOnUse">
<stop stop-color="#1D366D"/>
<stop offset="1" stop-color="#6B739C"/>
</linearGradient>
</defs>
</svg>
